<svg xmlns="http://www.w3.org/2000/svg" width="13.629" height="12" viewBox="0 0 13.629 12">
  <g id="post-comment" transform="translate(-249.185 -250)">
    <g id="Group_2477" data-name="Group 2477">
      <path id="Path_4988" data-name="Path 4988" d="M251.169,262H250.2l.683-.683a2.305,2.305,0,0,0,.659-1.366,5.208,5.208,0,0,1-2.039-2.412,4.724,4.724,0,0,1-.137-3.026,5.922,5.922,0,0,1,2.271-3.169,8.066,8.066,0,0,1,9.447.383,5.185,5.185,0,0,1,1.293,5.937,5.338,5.338,0,0,1-1.3,1.8,7.33,7.33,0,0,1-5.062,1.733,9.239,9.239,0,0,1-2.291-.291A3.582,3.582,0,0,1,251.169,262Zm4.854-11.2c-3.308,0-5.338,1.973-5.882,3.928a4.027,4.027,0,0,0,2.028,4.669l.2.121-.006.232a3.157,3.157,0,0,1-.318,1.306,2.837,2.837,0,0,0,1.253-.858l.169-.2.251.075a8.285,8.285,0,0,0,2.306.326c4.116,0,5.991-2.493,5.991-4.809a4.4,4.4,0,0,0-1.466-3.274,6.569,6.569,0,0,0-4.525-1.517Z" fill="#818181"/>
    </g>
  </g>
</svg>
